<svg xmlns="http://www.w3.org/2000/svg" width="30" height="27">
  <g fill="none" fill-rule="evenodd">
    <path d="M17.464 11.361l-1.431-.51a4.728 4.728 0 00-.405-.977l.653-1.376-1.14-1.142-1.373.653a4.719 4.719 0 00-.976-.405l-.51-1.435H10.67l-.51 1.435a4.696 4.696 0 00-.975.405l-1.373-.654-1.14 1.143.653 1.376a4.7 4.7 0 00-.405.977l-1.431.51v1.616l1.431.51a4.7 4.7 0 00.405.978l-.653 1.375 1.14 1.143 1.373-.654c.306.17.633.307.976.406l.51 1.434h1.612l.51-1.434c.342-.1.669-.236.975-.406l1.372.654 1.14-1.143-.652-1.375c.169-.307.306-.634.405-.978l1.431-.51v-1.616zm-5.988 2.808a1.998 1.998 0 01-1.995-2c0-1.104.893-2 1.995-2 1.103 0 1.996.896 1.996 2 0 1.105-.893 2-1.996 2z" stroke="#FFF" stroke-width="1.5"/>
    <path d="M25.807 18.683v-1.126l-.998-.355a3.294 3.294 0 00-.282-.681l.455-.958-.794-.796-.956.455a3.287 3.287 0 00-.68-.282l-.355-1h-1.123l-.355 1a3.268 3.268 0 00-.68.282l-.956-.456-.794.796.454.959a3.275 3.275 0 00-.282.68l-.997.356v1.126l.997.355c.069.24.164.468.282.681l-.454.959.794.796.956-.456c.213.118.441.214.68.283l.355 1h1.123l.355-1a3.28 3.28 0 00.68-.283l.956.456.794-.796-.455-.959c.118-.213.214-.441.282-.68l.998-.356zm-4.172.83c-.767 0-1.39-.623-1.39-1.393s.623-1.393 1.39-1.393c.768 0 1.39.624 1.39 1.393a1.39 1.39 0 01-1.39 1.393z" fill="#FFF"/>
  </g>
</svg>