<svg xmlns="http://www.w3.org/2000/svg" width="24" height="24" viewBox="0 0 24 24">
    <path fill="#d0021b" fill-rule="evenodd" d="M15.913 2c.147 0 .289.059.393.163l5.531 5.532a.556.556 0 0 1 .163.393v7.824a.556.556 0 0 1-.163.393l-5.532 5.532a.556.556 0 0 1-.393.163H8.088a.556.556 0 0 1-.393-.163l-5.532-5.532A.556.556 0 0 1 2 15.912V8.088c0-.148.059-.29.163-.393l5.531-5.532A.556.556 0 0 1 8.087 2zm-.253 5.556a.783.783 0 0 0-.554.23L12 10.89 8.894 7.785a.784.784 0 0 0-1.11 1.109h.001L10.891 12l-3.106 3.106a.785.785 0 0 0 1.11 1.109L12 13.108l3.106 3.105a.785.785 0 0 0 1.11-1.109h-.001L13.109 12l3.106-3.106a.784.784 0 0 0-.555-1.339z"/>
</svg>
