<svg width="15" height="24" xmlns="http://www.w3.org/2000/svg">
  <path
    d="M11.209 12.838a7.14 7.14 0 0 0 2.79-5.577C14.066 3.326 10.98.07 7.122 0L6.998 0C3.195 0 .068 3.12 0 7.011a7.17 7.17 0 0 0 1.95 5.068c.302.32.8.329 1.113.023a.814.814 0 0 0 .023-1.136 5.552 5.552 0 0 1-1.51-3.927c.05-3.016 2.474-5.433 5.422-5.433h.097c2.99.054 5.38 2.578 5.328 5.627a5.533 5.533 0 0 1-2.162 4.323.813.813 0 0 0-.157 1.124c.156.21.392.32.631.32.164 0 .331-.052.473-.162zM3.28 16.607c-.08 0-.143.02-.182.065-.213.221-.138.516.783 1.526.126.139.244.27.344.388.576.688 2.124 3.291 2.783 4.414l4.284-.024c.396-.658 1.301-2.365 1.664-4.682.15-.922-.093-1.235-.731-1.627-.414-.256-2.365-.407-3.933-.384l-.72.009-.567-6.867c-.024-.255-.27-.452-.492-.422a.44.44 0 0 0-.305.171.495.495 0 0 0-.102.35l.21 9.36-1.338-1.289c-.544-.522-1.318-.988-1.698-.988zM6.663 24c-.387 0-.737-.19-.939-.508-1.163-1.837-2.532-3.905-2.964-4.383a12.79 12.79 0 0 0-.32-.33c-.747-.76-2.302-2.336-.827-3.74.754-.798 1.854-.661 2.88-.143l-.137-5.677c-.052-.493.119-1.034.481-1.463.363-.43.875-.695 1.442-.747 1.173-.104 2.215.73 2.327 1.871l.472 5.287c1.29.016 3.433.117 4.279.596.91.518 1.912 1.355 1.577 3.261-.495 2.918-1.812 4.942-2.204 5.492a1.103 1.103 0 0 1-.895.457L6.663 24z"
    fill="#9B9B9B" fill-rule="evenodd"/>
</svg>
