<?xml version="1.0" encoding="UTF-8"?>
<svg width="15px" height="24px" viewBox="0 0 15 24" version="1.1" xmlns="http://www.w3.org/2000/svg" xmlns:xlink="http://www.w3.org/1999/xlink">
    <title>814999BE-63B8-4DA4-8CC7-C43BAA633D06</title>
    <desc>Created with sketchtool.</desc>
    <g id="Icon-treatments" stroke="none" stroke-width="1" fill="none" fill-rule="evenodd">
        <g id="Trigger-states/-Activity-icons" transform="translate(-216.000000, -941.000000)" fill="#9B9B9B">
            <g id="Group-4-Copy-9" transform="translate(200.000000, 929.000000)">
                <path d="M27.2088083,24.8383431 C28.9435726,23.506547 29.9611189,21.4735238 29.9989225,19.260644 C30.0661289,15.3262785 26.9809367,12.0695874 23.1218212,12.0010706 C23.0808673,12 23.0399134,12 22.9979094,12 C19.1954993,12 16.0683031,15.1196574 16.0010968,19.0111999 C15.9685437,20.9104011 16.6616093,22.7089681 17.9511315,24.0793049 C18.25251,24.3983365 18.7502571,24.4079717 19.0642369,24.101787 C19.3782166,23.7945318 19.3887176,23.2860084 19.0873391,22.9659063 C18.0876444,21.9049658 17.5510436,20.5110763 17.576246,19.0390348 C17.6277008,16.0232233 20.0513304,13.6058635 22.9989595,13.6058635 C23.0304625,13.6058635 23.0630156,13.6058635 23.0955687,13.606934 C26.0862519,13.6604628 28.4762783,16.1838096 28.4237733,19.232809 C28.3943705,20.9478712 27.606796,22.522688 26.2616186,23.5557935 C25.9140356,23.8223668 25.843679,24.3255373 26.1051537,24.6798979 C26.2605685,24.8897307 26.4968408,25 26.7362635,25 C26.900079,25 27.0670448,24.9475418 27.2088083,24.8383431 L27.2088083,24.8383431 Z M19.2807134,28.6065653 C19.2001741,28.6065653 19.1382208,28.6261871 19.0989837,28.6719713 C18.8862774,28.8932616 18.9606214,29.1875885 19.8816605,30.1981109 C20.0076322,30.3365535 20.126376,30.4673655 20.2255013,30.5861864 C20.801667,31.2740393 22.3504996,33.8771973 23.0092697,35 L27.2933406,34.9760178 C27.6888092,34.3175976 28.5943599,32.6105015 28.9567868,30.2940397 C29.1075398,29.3718153 28.8638568,29.0589567 28.2257378,28.6665208 C27.8116832,28.4114375 25.8611867,28.2599136 24.2927356,28.2828057 L23.5730448,28.2915265 L23.006172,21.4249886 C22.9824233,21.1699053 22.7356426,20.9725972 22.5136433,21.00312 C22.3938669,21.0151111 22.2854486,21.0761567 22.2090395,21.1742657 C22.1315979,21.2723746 22.096491,21.396646 22.1068166,21.5230976 L22.3174578,30.8837836 L20.9792665,29.5952858 C20.43511,29.073128 19.6606937,28.6065653 19.2807134,28.6065653 L19.2807134,28.6065653 Z M22.6631054,36 C22.2756467,36 21.925613,35.8100639 21.7241786,35.4924306 C20.5607019,33.6553083 19.1924885,31.5874727 18.7598997,31.1088766 C18.667438,31.0080066 18.5573645,30.8964057 18.4406866,30.7783663 C17.6932877,30.0196949 16.1379494,28.4433324 17.6129341,27.0386635 C18.3669374,26.2413611 19.4665715,26.3776429 20.4924563,26.8959432 L20.3559652,21.2193212 C20.3042307,20.7257019 20.4748446,20.1848669 20.8369863,19.7556327 C21.2002288,19.3263985 21.7120705,19.0613464 22.2789489,19.0087652 C23.4523322,18.904676 24.4936274,19.7395364 24.6059023,20.8802262 L25.0781175,26.1673182 C26.3681787,26.1834144 28.5113094,26.2842845 29.3566737,26.7628806 C30.2669814,27.2811808 31.2686501,28.1181875 30.9340267,30.0239872 C30.4386961,32.9417065 29.1222172,34.9655456 28.7303556,35.5160385 C28.5289212,35.8004061 28.1942978,35.9710267 27.8354582,35.9731729 L22.6631054,36 Z" id="ic-trigger-copy-9"></path>
            </g>
        </g>
    </g>
</svg>
